<svg id="Ebene_1" data-name="Ebene 1" xmlns="http://www.w3.org/2000/svg" width="600" height="400" viewBox="0 0 600 400"><defs><style>.cls-1{fill:#186cda;}.cls-2{fill:#fff;}</style></defs><g id="Logo-mark-blue"><path id="Combined-Shape-Copy-2" class="cls-1" d="M307.26,83.9,394.52,134a19.59,19.59,0,0,1,9.86,17v99.93a19.62,19.62,0,0,1-9.86,17L307.26,318a19.6,19.6,0,0,1-19.52,0l-87.26-50.07a19.62,19.62,0,0,1-9.86-17V151a19.59,19.59,0,0,1,9.86-17L287.74,83.9A19.6,19.6,0,0,1,307.26,83.9Z"/><path id="Path" class="cls-2" d="M256.17,237.32c0,8.89,2.48,11.06,11.35,13a121,121,0,0,0,26,2.56c32,0,44.36-9.67,44.36-29.81,0-16.59-8.46-23.9-23.72-29.63l-21.46-8.09c-6.19-2.37-8.46-3.56-8.46-6.72,0-3.55,2.89-5.33,15.27-5.33a90,90,0,0,1,22.07,2.37c9.08,2.17,11.55,0,11.55-8.88v-2c0-8.88-2.26-11.06-11.34-13-2.48-.59-9.49-2.37-21.87-2.37-30.53,0-42.08,9.87-42.08,29,0,16.19,8.25,22.71,21.45,28l19.19,7.7c10.52,4.14,13,5.53,13,9.08,0,4.54-3.92,5.73-15.88,5.73-14.65,0-22.9-1.78-28.06-3.16-9.08-2.37-11.35.39-11.35,9.28Z"/></g></svg>